<svg xmlns="http://www.w3.org/2000/svg" width="880" height="220" viewBox="0 0 880 220" role="img" aria-label="Generative circuit banner for 2026-08-07">
  <style>
    .trace { fill:none; stroke-width:1.6; stroke-linecap:round; stroke-linejoin:round; }
    .pkt { fill:none; stroke-width:2.6; stroke-linecap:round; stroke-linejoin:round; }
    .node { }
    .pulse { animation:pulse 3.2s ease-in-out infinite; transform-origin:center; }
    @keyframes pulse { 0%,100%{opacity:.35;r:3} 50%{opacity:1;r:5} }
    text { font-family:ui-monospace,SFMono-Regular,"SF Mono",Menlo,monospace; }
    @media (prefers-reduced-motion: reduce) {
      .pkt,.pulse { animation:none }
    }
  </style>
  <rect width="880" height="220" rx="14" fill="#fbfcfe"/>
  <rect x="0.5" y="0.5" width="879" height="219" rx="13.5"
        fill="none" stroke="#dde3ec"/>
  <rect x="1" y="1" width="878" height="36" rx="13" fill="#f2f5fa"/>
  <circle cx="20" cy="18" r="4" fill="#2f81f7" opacity="0.85"/><circle cx="34" cy="18" r="4" fill="#8957e5" opacity="0.85"/><circle cx="48" cy="18" r="4" fill="#1a7f37" opacity="0.85"/>
  <text x="66" y="23" font-size="12" fill="#5b6675">~/prem01-cyber &#8212; build &amp; break</text>
  <text x="860" y="23" font-size="12" text-anchor="end" fill="#5b6675">2026-08-07</text>
  <g transform="translate(0,20)">
    <path class="trace" d="M 28.0 26.0 L 99.0 26.0 Q 108.0 26.0 117.0 26.0 L 179.0 26.0 Q 188.0 26.0 197.0 26.0 L 219.0 26.0 Q 228.0 26.0 228.0 35.0 L 228.0 57.0 Q 228.0 66.0 237.0 66.0 L 259.0 66.0 Q 268.0 66.0 268.0 75.0 L 268.0 97.0 Q 268.0 106.0 277.0 106.0 L 379.0 106.0 Q 388.0 106.0 388.0 97.0 L 388.0 75.0 Q 388.0 66.0 397.0 66.0 L 499.0 66.0 Q 508.0 66.0 508.0 75.0 L 508.0 97.0 Q 508.0 106.0 517.0 106.0 L 579.0 106.0 Q 588.0 106.0 588.0 97.0 L 588.0 35.0 Q 588.0 26.0 597.0 26.0 L 619.0 26.0 Q 628.0 26.0 637.0 26.0 L 659.0 26.0 Q 668.0 26.0 677.0 26.0 L 739.0 26.0 Q 748.0 26.0 757.0 26.0 L 779.0 26.0 Q 788.0 26.0 797.0 26.0 L 828.0 26.0" stroke="#c2ccdb"/><path class="pkt p0" d="M 28.0 26.0 L 99.0 26.0 Q 108.0 26.0 117.0 26.0 L 179.0 26.0 Q 188.0 26.0 197.0 26.0 L 219.0 26.0 Q 228.0 26.0 228.0 35.0 L 228.0 57.0 Q 228.0 66.0 237.0 66.0 L 259.0 66.0 Q 268.0 66.0 268.0 75.0 L 268.0 97.0 Q 268.0 106.0 277.0 106.0 L 379.0 106.0 Q 388.0 106.0 388.0 97.0 L 388.0 75.0 Q 388.0 66.0 397.0 66.0 L 499.0 66.0 Q 508.0 66.0 508.0 75.0 L 508.0 97.0 Q 508.0 106.0 517.0 106.0 L 579.0 106.0 Q 588.0 106.0 588.0 97.0 L 588.0 35.0 Q 588.0 26.0 597.0 26.0 L 619.0 26.0 Q 628.0 26.0 637.0 26.0 L 659.0 26.0 Q 668.0 26.0 677.0 26.0 L 739.0 26.0 Q 748.0 26.0 757.0 26.0 L 779.0 26.0 Q 788.0 26.0 797.0 26.0 L 828.0 26.0" stroke="#2f81f7"/><path class="trace" d="M 28.0 66.0 L 139.0 66.0 Q 148.0 66.0 148.0 75.0 L 148.0 97.0 Q 148.0 106.0 157.0 106.0 L 259.0 106.0 Q 268.0 106.0 277.0 106.0 L 339.0 106.0 Q 348.0 106.0 348.0 97.0 L 348.0 35.0 Q 348.0 26.0 357.0 26.0 L 379.0 26.0 Q 388.0 26.0 397.0 26.0 L 419.0 26.0 Q 428.0 26.0 437.0 26.0 L 459.0 26.0 Q 468.0 26.0 477.0 26.0 L 499.0 26.0 Q 508.0 26.0 508.0 35.0 L 508.0 57.0 Q 508.0 66.0 517.0 66.0 L 539.0 66.0 Q 548.0 66.0 548.0 57.0 L 548.0 35.0 Q 548.0 26.0 557.0 26.0 L 579.0 26.0 Q 588.0 26.0 588.0 35.0 L 588.0 57.0 Q 588.0 66.0 597.0 66.0 L 619.0 66.0 Q 628.0 66.0 637.0 66.0 L 659.0 66.0 Q 668.0 66.0 668.0 57.0 L 668.0 35.0 Q 668.0 26.0 677.0 26.0 L 739.0 26.0 Q 748.0 26.0 757.0 26.0 L 779.0 26.0 Q 788.0 26.0 788.0 35.0 L 788.0 97.0 Q 788.0 106.0 797.0 106.0 L 828.0 106.0" stroke="#c2ccdb"/><path class="pkt p1" d="M 28.0 66.0 L 139.0 66.0 Q 148.0 66.0 148.0 75.0 L 148.0 97.0 Q 148.0 106.0 157.0 106.0 L 259.0 106.0 Q 268.0 106.0 277.0 106.0 L 339.0 106.0 Q 348.0 106.0 348.0 97.0 L 348.0 35.0 Q 348.0 26.0 357.0 26.0 L 379.0 26.0 Q 388.0 26.0 397.0 26.0 L 419.0 26.0 Q 428.0 26.0 437.0 26.0 L 459.0 26.0 Q 468.0 26.0 477.0 26.0 L 499.0 26.0 Q 508.0 26.0 508.0 35.0 L 508.0 57.0 Q 508.0 66.0 517.0 66.0 L 539.0 66.0 Q 548.0 66.0 548.0 57.0 L 548.0 35.0 Q 548.0 26.0 557.0 26.0 L 579.0 26.0 Q 588.0 26.0 588.0 35.0 L 588.0 57.0 Q 588.0 66.0 597.0 66.0 L 619.0 66.0 Q 628.0 66.0 637.0 66.0 L 659.0 66.0 Q 668.0 66.0 668.0 57.0 L 668.0 35.0 Q 668.0 26.0 677.0 26.0 L 739.0 26.0 Q 748.0 26.0 757.0 26.0 L 779.0 26.0 Q 788.0 26.0 788.0 35.0 L 788.0 97.0 Q 788.0 106.0 797.0 106.0 L 828.0 106.0" stroke="#8957e5"/><path class="trace" d="M 28.0 146.0 L 139.0 146.0 Q 148.0 146.0 148.0 155.0 L 148.0 177.0 Q 148.0 186.0 157.0 186.0 L 219.0 186.0 Q 228.0 186.0 237.0 186.0 L 299.0 186.0 Q 308.0 186.0 308.0 177.0 L 308.0 115.0 Q 308.0 106.0 317.0 106.0 L 379.0 106.0 Q 388.0 106.0 388.0 115.0 L 388.0 177.0 Q 388.0 186.0 397.0 186.0 L 419.0 186.0 Q 428.0 186.0 437.0 186.0 L 539.0 186.0 Q 548.0 186.0 548.0 177.0 L 548.0 115.0 Q 548.0 106.0 557.0 106.0 L 579.0 106.0 Q 588.0 106.0 588.0 97.0 L 588.0 35.0 Q 588.0 26.0 597.0 26.0 L 659.0 26.0 Q 668.0 26.0 668.0 35.0 L 668.0 97.0 Q 668.0 106.0 677.0 106.0 L 699.0 106.0 Q 708.0 106.0 708.0 97.0 L 708.0 75.0 Q 708.0 66.0 717.0 66.0 L 779.0 66.0 Q 788.0 66.0 788.0 75.0 L 788.0 97.0 Q 788.0 106.0 797.0 106.0 L 828.0 106.0" stroke="#c2ccdb"/><path class="pkt p2" d="M 28.0 146.0 L 139.0 146.0 Q 148.0 146.0 148.0 155.0 L 148.0 177.0 Q 148.0 186.0 157.0 186.0 L 219.0 186.0 Q 228.0 186.0 237.0 186.0 L 299.0 186.0 Q 308.0 186.0 308.0 177.0 L 308.0 115.0 Q 308.0 106.0 317.0 106.0 L 379.0 106.0 Q 388.0 106.0 388.0 115.0 L 388.0 177.0 Q 388.0 186.0 397.0 186.0 L 419.0 186.0 Q 428.0 186.0 437.0 186.0 L 539.0 186.0 Q 548.0 186.0 548.0 177.0 L 548.0 115.0 Q 548.0 106.0 557.0 106.0 L 579.0 106.0 Q 588.0 106.0 588.0 97.0 L 588.0 35.0 Q 588.0 26.0 597.0 26.0 L 659.0 26.0 Q 668.0 26.0 668.0 35.0 L 668.0 97.0 Q 668.0 106.0 677.0 106.0 L 699.0 106.0 Q 708.0 106.0 708.0 97.0 L 708.0 75.0 Q 708.0 66.0 717.0 66.0 L 779.0 66.0 Q 788.0 66.0 788.0 75.0 L 788.0 97.0 Q 788.0 106.0 797.0 106.0 L 828.0 106.0" stroke="#1a7f37"/><path class="trace" d="M 28.0 106.0 L 59.0 106.0 Q 68.0 106.0 68.0 115.0 L 68.0 137.0 Q 68.0 146.0 77.0 146.0 L 99.0 146.0 Q 108.0 146.0 108.0 155.0 L 108.0 177.0 Q 108.0 186.0 117.0 186.0 L 139.0 186.0 Q 148.0 186.0 157.0 186.0 L 259.0 186.0 Q 268.0 186.0 277.0 186.0 L 299.0 186.0 Q 308.0 186.0 308.0 177.0 L 308.0 115.0 Q 308.0 106.0 317.0 106.0 L 339.0 106.0 Q 348.0 106.0 357.0 106.0 L 379.0 106.0 Q 388.0 106.0 388.0 97.0 L 388.0 75.0 Q 388.0 66.0 397.0 66.0 L 419.0 66.0 Q 428.0 66.0 437.0 66.0 L 499.0 66.0 Q 508.0 66.0 508.0 57.0 L 508.0 35.0 Q 508.0 26.0 517.0 26.0 L 539.0 26.0 Q 548.0 26.0 548.0 35.0 L 548.0 57.0 Q 548.0 66.0 557.0 66.0 L 659.0 66.0 Q 668.0 66.0 668.0 75.0 L 668.0 137.0 Q 668.0 146.0 677.0 146.0 L 739.0 146.0 Q 748.0 146.0 748.0 137.0 L 748.0 75.0 Q 748.0 66.0 757.0 66.0 L 828.0 66.0" stroke="#c2ccdb"/><path class="pkt p3" d="M 28.0 106.0 L 59.0 106.0 Q 68.0 106.0 68.0 115.0 L 68.0 137.0 Q 68.0 146.0 77.0 146.0 L 99.0 146.0 Q 108.0 146.0 108.0 155.0 L 108.0 177.0 Q 108.0 186.0 117.0 186.0 L 139.0 186.0 Q 148.0 186.0 157.0 186.0 L 259.0 186.0 Q 268.0 186.0 277.0 186.0 L 299.0 186.0 Q 308.0 186.0 308.0 177.0 L 308.0 115.0 Q 308.0 106.0 317.0 106.0 L 339.0 106.0 Q 348.0 106.0 357.0 106.0 L 379.0 106.0 Q 388.0 106.0 388.0 97.0 L 388.0 75.0 Q 388.0 66.0 397.0 66.0 L 419.0 66.0 Q 428.0 66.0 437.0 66.0 L 499.0 66.0 Q 508.0 66.0 508.0 57.0 L 508.0 35.0 Q 508.0 26.0 517.0 26.0 L 539.0 26.0 Q 548.0 26.0 548.0 35.0 L 548.0 57.0 Q 548.0 66.0 557.0 66.0 L 659.0 66.0 Q 668.0 66.0 668.0 75.0 L 668.0 137.0 Q 668.0 146.0 677.0 146.0 L 739.0 146.0 Q 748.0 146.0 748.0 137.0 L 748.0 75.0 Q 748.0 66.0 757.0 66.0 L 828.0 66.0" stroke="#bc4c00"/><path class="trace" d="M 28.0 186.0 L 139.0 186.0 Q 148.0 186.0 148.0 177.0 L 148.0 155.0 Q 148.0 146.0 157.0 146.0 L 179.0 146.0 Q 188.0 146.0 197.0 146.0 L 219.0 146.0 Q 228.0 146.0 237.0 146.0 L 339.0 146.0 Q 348.0 146.0 348.0 155.0 L 348.0 177.0 Q 348.0 186.0 357.0 186.0 L 459.0 186.0 Q 468.0 186.0 468.0 177.0 L 468.0 155.0 Q 468.0 146.0 477.0 146.0 L 499.0 146.0 Q 508.0 146.0 517.0 146.0 L 579.0 146.0 Q 588.0 146.0 588.0 155.0 L 588.0 177.0 Q 588.0 186.0 597.0 186.0 L 619.0 186.0 Q 628.0 186.0 628.0 177.0 L 628.0 115.0 Q 628.0 106.0 637.0 106.0 L 659.0 106.0 Q 668.0 106.0 677.0 106.0 L 739.0 106.0 Q 748.0 106.0 748.0 115.0 L 748.0 177.0 Q 748.0 186.0 757.0 186.0 L 828.0 186.0" stroke="#c2ccdb"/><path class="pkt p4" d="M 28.0 186.0 L 139.0 186.0 Q 148.0 186.0 148.0 177.0 L 148.0 155.0 Q 148.0 146.0 157.0 146.0 L 179.0 146.0 Q 188.0 146.0 197.0 146.0 L 219.0 146.0 Q 228.0 146.0 237.0 146.0 L 339.0 146.0 Q 348.0 146.0 348.0 155.0 L 348.0 177.0 Q 348.0 186.0 357.0 186.0 L 459.0 186.0 Q 468.0 186.0 468.0 177.0 L 468.0 155.0 Q 468.0 146.0 477.0 146.0 L 499.0 146.0 Q 508.0 146.0 517.0 146.0 L 579.0 146.0 Q 588.0 146.0 588.0 155.0 L 588.0 177.0 Q 588.0 186.0 597.0 186.0 L 619.0 186.0 Q 628.0 186.0 628.0 177.0 L 628.0 115.0 Q 628.0 106.0 637.0 106.0 L 659.0 106.0 Q 668.0 106.0 677.0 106.0 L 739.0 106.0 Q 748.0 106.0 748.0 115.0 L 748.0 177.0 Q 748.0 186.0 757.0 186.0 L 828.0 186.0" stroke="#2f81f7"/><circle class="node pulse" cx="28" cy="26" r="3" fill="#2f81f7" style="animation-delay:0.38s"/><circle class="node pulse" cx="28" cy="66" r="3" fill="#8957e5" style="animation-delay:2.61s"/><circle class="node" cx="28" cy="106" r="3" fill="#dde3ec" style="animation-delay:1.65s"/><circle class="node" cx="28" cy="146" r="3" fill="#dde3ec" style="animation-delay:0.7s"/><circle class="node" cx="28" cy="186" r="3" fill="#dde3ec" style="animation-delay:1.45s"/><circle class="node" cx="68" cy="106" r="3" fill="#dde3ec" style="animation-delay:0.99s"/><circle class="node pulse" cx="68" cy="146" r="3" fill="#2f81f7" style="animation-delay:0.74s"/><circle class="node" cx="108" cy="26" r="3" fill="#dde3ec" style="animation-delay:3.53s"/><circle class="node" cx="108" cy="146" r="3" fill="#dde3ec" style="animation-delay:2.47s"/><circle class="node" cx="108" cy="186" r="3" fill="#dde3ec" style="animation-delay:2.34s"/><circle class="node pulse" cx="148" cy="66" r="3" fill="#2f81f7" style="animation-delay:3.94s"/><circle class="node pulse" cx="148" cy="106" r="3" fill="#8957e5" style="animation-delay:3.14s"/><circle class="node pulse" cx="148" cy="146" r="3" fill="#1a7f37" style="animation-delay:1.9s"/><circle class="node" cx="148" cy="186" r="3" fill="#dde3ec" style="animation-delay:0.98s"/><circle class="node pulse" cx="188" cy="26" r="3" fill="#2f81f7" style="animation-delay:1.21s"/><circle class="node" cx="188" cy="146" r="3" fill="#dde3ec" style="animation-delay:2.68s"/><circle class="node" cx="228" cy="26" r="3" fill="#dde3ec" style="animation-delay:3.09s"/><circle class="node" cx="228" cy="66" r="3" fill="#dde3ec" style="animation-delay:0.32s"/><circle class="node" cx="228" cy="146" r="3" fill="#dde3ec" style="animation-delay:2.23s"/><circle class="node" cx="228" cy="186" r="3" fill="#dde3ec" style="animation-delay:0.78s"/><circle class="node" cx="268" cy="66" r="3" fill="#dde3ec" style="animation-delay:3.58s"/><circle class="node" cx="268" cy="106" r="3" fill="#dde3ec" style="animation-delay:3.67s"/><circle class="node" cx="268" cy="186" r="3" fill="#dde3ec" style="animation-delay:2.59s"/><circle class="node" cx="308" cy="106" r="3" fill="#dde3ec" style="animation-delay:2.68s"/><circle class="node" cx="308" cy="186" r="3" fill="#dde3ec" style="animation-delay:3.9s"/><circle class="node pulse" cx="348" cy="26" r="3" fill="#2f81f7" style="animation-delay:3.27s"/><circle class="node" cx="348" cy="106" r="3" fill="#dde3ec" style="animation-delay:3.47s"/><circle class="node pulse" cx="348" cy="146" r="3" fill="#bc4c00" style="animation-delay:3.88s"/><circle class="node pulse" cx="348" cy="186" r="3" fill="#2f81f7" style="animation-delay:1.71s"/><circle class="node pulse" cx="388" cy="26" r="3" fill="#8957e5" style="animation-delay:3.16s"/><circle class="node" cx="388" cy="66" r="3" fill="#dde3ec" style="animation-delay:2.25s"/><circle class="node pulse" cx="388" cy="106" r="3" fill="#bc4c00" style="animation-delay:1.7s"/><circle class="node" cx="388" cy="186" r="3" fill="#dde3ec" style="animation-delay:1.56s"/><circle class="node pulse" cx="428" cy="26" r="3" fill="#1a7f37" style="animation-delay:3.58s"/><circle class="node" cx="428" cy="66" r="3" fill="#dde3ec" style="animation-delay:1.73s"/><circle class="node pulse" cx="428" cy="186" r="3" fill="#1a7f37" style="animation-delay:0.25s"/><circle class="node" cx="468" cy="26" r="3" fill="#dde3ec" style="animation-delay:0.82s"/><circle class="node" cx="468" cy="146" r="3" fill="#dde3ec" style="animation-delay:1.71s"/><circle class="node" cx="468" cy="186" r="3" fill="#dde3ec" style="animation-delay:1.97s"/><circle class="node" cx="508" cy="26" r="3" fill="#dde3ec" style="animation-delay:2.03s"/><circle class="node pulse" cx="508" cy="66" r="3" fill="#8957e5" style="animation-delay:1.27s"/><circle class="node" cx="508" cy="106" r="3" fill="#dde3ec" style="animation-delay:2.7s"/><circle class="node" cx="508" cy="146" r="3" fill="#dde3ec" style="animation-delay:1.0s"/><circle class="node" cx="548" cy="26" r="3" fill="#dde3ec" style="animation-delay:2.97s"/><circle class="node" cx="548" cy="66" r="3" fill="#dde3ec" style="animation-delay:2.52s"/><circle class="node pulse" cx="548" cy="106" r="3" fill="#bc4c00" style="animation-delay:1.18s"/><circle class="node" cx="548" cy="186" r="3" fill="#dde3ec" style="animation-delay:1.06s"/><circle class="node" cx="588" cy="26" r="3" fill="#dde3ec" style="animation-delay:1.56s"/><circle class="node" cx="588" cy="66" r="3" fill="#dde3ec" style="animation-delay:1.95s"/><circle class="node" cx="588" cy="106" r="3" fill="#dde3ec" style="animation-delay:2.28s"/><circle class="node pulse" cx="588" cy="146" r="3" fill="#8957e5" style="animation-delay:1.73s"/><circle class="node" cx="588" cy="186" r="3" fill="#dde3ec" style="animation-delay:1.83s"/><circle class="node pulse" cx="628" cy="26" r="3" fill="#bc4c00" style="animation-delay:0.59s"/><circle class="node pulse" cx="628" cy="66" r="3" fill="#2f81f7" style="animation-delay:2.59s"/><circle class="node" cx="628" cy="106" r="3" fill="#dde3ec" style="animation-delay:3.36s"/><circle class="node pulse" cx="628" cy="186" r="3" fill="#bc4c00" style="animation-delay:3.36s"/><circle class="node" cx="668" cy="26" r="3" fill="#dde3ec" style="animation-delay:1.76s"/><circle class="node" cx="668" cy="66" r="3" fill="#dde3ec" style="animation-delay:3.06s"/><circle class="node" cx="668" cy="106" r="3" fill="#dde3ec" style="animation-delay:2.0s"/><circle class="node pulse" cx="668" cy="146" r="3" fill="#bc4c00" style="animation-delay:3.51s"/><circle class="node" cx="708" cy="66" r="3" fill="#dde3ec" style="animation-delay:3.52s"/><circle class="node pulse" cx="708" cy="106" r="3" fill="#bc4c00" style="animation-delay:2.69s"/><circle class="node" cx="748" cy="26" r="3" fill="#dde3ec" style="animation-delay:3.27s"/><circle class="node pulse" cx="748" cy="66" r="3" fill="#bc4c00" style="animation-delay:1.05s"/><circle class="node" cx="748" cy="106" r="3" fill="#dde3ec" style="animation-delay:0.11s"/><circle class="node" cx="748" cy="146" r="3" fill="#dde3ec" style="animation-delay:2.8s"/><circle class="node pulse" cx="748" cy="186" r="3" fill="#1a7f37" style="animation-delay:0.88s"/><circle class="node" cx="788" cy="26" r="3" fill="#dde3ec" style="animation-delay:3.42s"/><circle class="node" cx="788" cy="66" r="3" fill="#dde3ec" style="animation-delay:1.34s"/><circle class="node pulse" cx="788" cy="106" r="3" fill="#8957e5" style="animation-delay:0.73s"/><circle class="node" cx="828" cy="26" r="3" fill="#dde3ec" style="animation-delay:0.25s"/><circle class="node" cx="828" cy="66" r="3" fill="#dde3ec" style="animation-delay:2.06s"/><circle class="node pulse" cx="828" cy="106" r="3" fill="#1a7f37" style="animation-delay:3.23s"/><circle class="node" cx="828" cy="186" r="3" fill="#dde3ec" style="animation-delay:2.97s"/>
  </g>
</svg>
